<svg xmlns="http://www.w3.org/2000/svg" viewBox="0 0 676 102.15">
  <defs>
    <style>
      .a {
        fill: #faf5db;
      }

      .b {
        fill: #fdf3d0;
      }

      .c {
        fill: #fff;
      }
    </style>
  </defs>
  <g>
    <path class="a" d="M33.6,35.9c-7.6-.7-11.2-6.2-14-12.5-1.3,6.4-.1,11.9,5.1,15.6,5.6,4,11.9,4.2,17.9,1,5.4-2.9,8.2-7.5,7.1-14.7C45.6,31.6,41.4,36.6,33.6,35.9Z"/>
    <path class="a" d="M198,29.1c-.5-.9-1-2-2.2-1.6s-.8,1.7-.8,2.6c-.1,8.2,8.1,15,17.9,14.8,7.1-.1,13.9-7.8,13.5-16.1C218.8,40.9,205.4,43.9,198,29.1Z"/>
    <path class="a" d="M308.3,17.5c-1.4-.8-2.2.9-3,1.9-5.4,6.5-10.1,7.3-17.7,4-4.4-1.8-6.5-5.2-8.7-9.8-2.6,7.1,3.7,16,9.7,17,9.4,1.6,16.4-.8,19.8-9.5C308.9,19.8,309.6,18.3,308.3,17.5Z"/>
    <path class="a" d="M93.1,22.2c-.9-1.3-1.6-3.6-3.5-2.5-1.4.9-.5,3,.1,4.6,3,7.4,9.2,10.8,17.6,9.6,7.6-1.1,11.3-5.3,12.3-14.1-1.7,1.3-3.4,2.6-5,4A14,14,0,0,1,93.1,22.2Z"/>
    <path class="a" d="M371.6,35.9c-7.6-.7-11.2-6.2-14-12.5-1.3,6.4-.1,11.9,5.1,15.6,5.6,4,11.9,4.2,17.9,1,5.4-2.9,8.2-7.5,7.1-14.7C383.6,31.6,379.4,36.6,371.6,35.9Z"/>
    <path class="a" d="M536,29.1c-.5-.9-1-2-2.2-1.6s-.8,1.7-.8,2.6c-.1,8.2,8.1,15,17.9,14.8,7.1-.1,13.9-7.8,13.5-16.1C556.8,40.9,543.4,43.9,536,29.1Z"/>
    <path class="a" d="M646.3,17.5c-1.4-.8-2.2.9-3,1.9-5.4,6.5-10.1,7.3-17.7,4-4.4-1.8-6.5-5.2-8.7-9.8-2.6,7.1,3.7,16,9.7,17,9.4,1.6,16.4-.8,19.8-9.5C646.9,19.8,647.6,18.3,646.3,17.5Z"/>
    <path class="a" d="M431.1,22.2c-.9-1.3-1.6-3.6-3.5-2.5-1.4.9-.5,3,.1,4.6,3,7.4,9.2,10.8,17.6,9.6,7.6-1.1,11.3-5.3,12.3-14.1-1.7,1.3-3.4,2.6-5,4A14,14,0,0,1,431.1,22.2Z"/>
    <path class="b" d="M663.7,62.1c-3.6-2.5-6.6-1.2-9.4.7-7.9,5.2-15.6,4.5-23.3-.1-5.8-3.4-5.7-3.5-10.1,1.8a7.28,7.28,0,0,1-1.8,1.7c-11.6,8.5-28.6,7.2-35.5-7.4-1.3-2.7-2.7-2.8-5.1-2.3-4.9,1.1-10.1,1.8-14.7-.4s-6.5-.6-8.9,3.1A22.25,22.25,0,0,1,520.5,63a9.39,9.39,0,0,0-8-2.9,23.93,23.93,0,0,1-14.8-3.4c-2.4-1.5-3.7-.9-5.7.3a25.57,25.57,0,0,1-29.7-1.3c-2.5-1.9-3.7-1.4-5.9.3-6.9,5.4-14.8,7.2-22.8,3.1-5-2.6-8.4-1.8-12.7,1.2-6.9,4.6-14.7,4-21.8.8-4-1.8-6.7-2.4-10.3.3-6.2,4.7-13.1,4.8-20.2,2a9.91,9.91,0,0,0-5.4-.1c-3.8.6-7.7,1.4-11.7.7-2.5-.5-3.9,2.5-5.4,2.7-2.1.2-4.6-3.3-8.1-1.8a8.26,8.26,0,0,1-1,.24,17.72,17.72,0,0,1-11.3-3c-3.6-2.5-6.6-1.2-9.4.7-7.9,5.2-15.6,4.5-23.3-.1-5.8-3.4-5.7-3.5-10.1,1.8a7.28,7.28,0,0,1-1.8,1.7c-11.6,8.5-28.6,7.2-35.5-7.4-1.3-2.7-2.7-2.8-5.1-2.3-4.9,1.1-10.1,1.8-14.7-.4s-6.5-.6-8.9,3.1A22.25,22.25,0,0,1,182.5,63a9.39,9.39,0,0,0-8-2.9,23.93,23.93,0,0,1-14.8-3.4c-2.4-1.5-3.7-.9-5.7.3a25.57,25.57,0,0,1-29.7-1.3c-2.5-1.9-3.7-1.4-5.9.3-6.9,5.4-14.8,7.2-22.8,3.1-5-2.6-8.4-1.8-12.7,1.2-6.9,4.6-14.7,4-21.8.8-4-1.8-6.7-2.4-10.3.3-6.2,4.7-13.1,4.8-20.2,2a9.91,9.91,0,0,0-5.4-.1c-3.8.6-7.7,1.4-11.7.7-2.5-.5-3.9,2.5-5.4,2.7C6,66.9,3.5,63.4,0,64.9v25c4.9.1,8.8-.7,11.5.4,3,1.2,6.8,5.8,11.3,6.7,14.7,3,26.8-6.1,28.3-20.7.5-5.7,8.4-10.4,13.6-8.2,5.6,2.3,11.3,2.8,16.7-.5,2.7-1.7,4.4-.7,6.6,1,10.8,8.3,23.6,8.6,34.2.7,3.9-2.8,4.6-2.2,5.2,2.3a19,19,0,0,0,27,14.8c3.1-1.4,4.6-1.3,6.2,1.9,4.4,8.7,12.1,12.3,21.4,11.9,9-.4,16.3-4.8,19.4-13.3,2-5.5,4.8-8.5,10.5-9a.76.76,0,0,0,.5-.2c7.1-6.9,15.1-5.4,23.5-2.9,2.6.7,4.5,1.2,5.5,3.9a17.39,17.39,0,0,0,8.5,9.4,8.23,8.23,0,0,1,3.9,3.7c3.9,7.5,10.3,10.8,18.4,10.3,8.4-.6,14.3-5.3,16.9-13.3a13.37,13.37,0,0,1,5.4-7.3,14.56,14.56,0,0,0,3.6-3.4c4-5.1,9.5-4.6,12.6,1a22.65,22.65,0,0,0,2.9,4c6.58,7.47,15,8.57,24.4,6.8,4.9.1,8.8-.7,11.5.4,3,1.2,6.8,5.8,11.3,6.7,14.7,3,26.8-6.1,28.3-20.7.5-5.7,8.4-10.4,13.6-8.2,5.6,2.3,11.3,2.8,16.7-.5,2.7-1.7,4.4-.7,6.6,1,10.8,8.3,23.6,8.6,34.2.7,3.9-2.8,4.6-2.2,5.2,2.3a19,19,0,0,0,27,14.8c3.1-1.4,4.6-1.3,6.2,1.9,4.4,8.7,12.1,12.3,21.4,11.9,9-.4,16.3-4.8,19.4-13.3,2-5.5,4.8-8.5,10.5-9a.76.76,0,0,0,.5-.2c7.1-6.9,15.1-5.4,23.5-2.9,2.6.7,4.5,1.2,5.5,3.9a17.39,17.39,0,0,0,8.5,9.4,8.23,8.23,0,0,1,3.9,3.7c3.9,7.5,10.3,10.8,18.4,10.3,8.4-.6,14.3-5.3,16.9-13.3a13.37,13.37,0,0,1,5.4-7.3,14.56,14.56,0,0,0,3.6-3.4c4-5.1,9.5-4.6,12.6,1a22.65,22.65,0,0,0,2.9,4c6.58,7.47,15,8.57,24.4,6.8v-25a8.26,8.26,0,0,1-1,.24A17.72,17.72,0,0,1,663.7,62.1Z"/>
    <path class="c" d="M338,0H0V64.9c3.5-1.5,6,2,8.1,1.8,1.5-.2,2.9-3.2,5.4-2.7,4,.7,7.9-.1,11.7-.7a9.91,9.91,0,0,1,5.4.1c7.1,2.8,14,2.7,20.2-2,3.6-2.7,6.3-2.1,10.3-.3,7.1,3.2,14.9,3.8,21.8-.8,4.3-3,7.7-3.8,12.7-1.2,8,4.1,15.9,2.3,22.8-3.1,2.2-1.7,3.4-2.2,5.9-.3A25.57,25.57,0,0,0,154,57c2-1.2,3.3-1.8,5.7-.3a23.93,23.93,0,0,0,14.8,3.4,9.39,9.39,0,0,1,8,2.9,22.25,22.25,0,0,0,34.4-3.8c2.4-3.7,4.3-5.3,8.9-3.1s9.8,1.5,14.7.4c2.4-.5,3.8-.4,5.1,2.3,6.9,14.6,23.9,15.9,35.5,7.4a7.28,7.28,0,0,0,1.8-1.7c4.4-5.3,4.3-5.2,10.1-1.8,7.7,4.6,15.4,5.3,23.3.1,2.8-1.9,5.8-3.2,9.4-.7a17.72,17.72,0,0,0,11.3,3,8.26,8.26,0,0,0,1-.24c3.5-1.5,6,2,8.1,1.8,1.5-.2,2.9-3.2,5.4-2.7,4,.7,7.9-.1,11.7-.7a9.91,9.91,0,0,1,5.4.1c7.1,2.8,14,2.7,20.2-2,3.6-2.7,6.3-2.1,10.3-.3,7.1,3.2,14.9,3.8,21.8-.8,4.3-3,7.7-3.8,12.7-1.2,8,4.1,15.9,2.3,22.8-3.1,2.2-1.7,3.4-2.2,5.9-.3A25.57,25.57,0,0,0,492,57c2-1.2,3.3-1.8,5.7-.3a23.93,23.93,0,0,0,14.8,3.4,9.39,9.39,0,0,1,8,2.9,22.25,22.25,0,0,0,34.4-3.8c2.4-3.7,4.3-5.3,8.9-3.1s9.8,1.5,14.7.4c2.4-.5,3.8-.4,5.1,2.3,6.9,14.6,23.9,15.9,35.5,7.4a7.28,7.28,0,0,0,1.8-1.7c4.4-5.3,4.3-5.2,10.1-1.8,7.7,4.6,15.4,5.3,23.3.1,2.8-1.9,5.8-3.2,9.4-.7a17.72,17.72,0,0,0,11.3,3,8.26,8.26,0,0,0,1-.24V0ZM42.6,40c-6,3.2-12.3,3-17.9-1-5.2-3.7-6.4-9.2-5.1-15.6,2.8,6.3,6.4,11.8,14,12.5,7.8.7,12-4.3,16.1-10.6C50.8,32.5,48,37.1,42.6,40Zm64.7-6.1c-8.4,1.2-14.6-2.2-17.6-9.6-.6-1.6-1.5-3.7-.1-4.6,1.9-1.1,2.6,1.2,3.5,2.5a14,14,0,0,0,21.5,1.6c1.6-1.4,3.3-2.7,5-4C118.6,28.6,114.9,32.8,107.3,33.9Zm105.6,11c-9.8.2-18-6.6-17.9-14.8,0-.9-.4-2.2.8-2.6s1.7.7,2.2,1.6c7.4,14.8,20.8,11.8,28.4-.3C226.8,37.1,220,44.8,212.9,44.9Zm95.5-23.8c-3.4,8.7-10.4,11.1-19.8,9.5-6-1-12.3-9.9-9.7-17,2.2,4.6,4.3,8,8.7,9.8,7.6,3.3,12.3,2.5,17.7-4,.8-1,1.6-2.7,3-1.9S308.9,19.8,308.4,21.1ZM380.6,40c-6,3.2-12.3,3-17.9-1-5.2-3.7-6.4-9.2-5.1-15.6,2.8,6.3,6.4,11.8,14,12.5,7.8.7,12-4.3,16.1-10.6C388.8,32.5,386,37.1,380.6,40Zm64.7-6.1c-8.4,1.2-14.6-2.2-17.6-9.6-.6-1.6-1.5-3.7-.1-4.6,1.9-1.1,2.6,1.2,3.5,2.5a14,14,0,0,0,21.5,1.6c1.6-1.4,3.3-2.7,5-4C456.6,28.6,452.9,32.8,445.3,33.9Zm105.6,11c-9.8.2-18-6.6-17.9-14.8,0-.9-.4-2.2.8-2.6s1.7.7,2.2,1.6c7.4,14.8,20.8,11.8,28.4-.3C564.8,37.1,558,44.8,550.9,44.9Zm95.5-23.8c-3.4,8.7-10.4,11.1-19.8,9.5-6-1-12.3-9.9-9.7-17,2.2,4.6,4.3,8,8.7,9.8,7.6,3.3,12.3,2.5,17.7-4,.8-1,1.6-2.7,3-1.9S646.9,19.8,646.4,21.1Z"/>
  </g>
</svg>
