<svg id="Layer_1" data-name="Layer 1" xmlns="http://www.w3.org/2000/svg" viewBox="0 0 265 260.51"><defs><style>.cls-1{fill:#fbffff;}</style></defs><title>exit</title><path class="cls-1" d="M258.05,119.57,149.59,9.41a24,24,0,0,0-34.19,0L6.94,119.57C-8,134.74,2.75,160.38,24,160.38H37.75v74.83a27.54,27.54,0,0,0,27.54,27.54h40V182.66a22.26,22.26,0,0,1,22.26-22.28h9.89a22.26,22.26,0,0,1,22.24,22.28v80.09h40a27.55,27.55,0,0,0,27.55-27.54V160.38H241C262.24,160.38,273,134.74,258.05,119.57Z" transform="translate(0 -2.25)"/></svg>